<svg width="158" height="88" viewBox="0 0 158 88" fill="none" xmlns="http://www.w3.org/2000/svg">
<path fill-rule="evenodd" clip-rule="evenodd" d="M21.8575 10.812C21.8575 16.7833 16.9645 21.624 10.9288 21.624C4.89297 21.624 0 16.7833 0 10.812C0 4.84069 4.89297 0 10.9288 0C16.9645 0 21.8575 4.84069 21.8575 10.812ZM11.2676 15.1038L11.2631 15.1046L11.2341 15.1188L11.226 15.1204L11.2203 15.1188L11.1913 15.1046C11.1869 15.1033 11.1836 15.104 11.1815 15.1067L11.1798 15.1107L11.1729 15.2836L11.1749 15.2917L11.179 15.2969L11.2215 15.3268L11.2276 15.3284L11.2325 15.3268L11.275 15.2969L11.2799 15.2905L11.2815 15.2836L11.2746 15.1111C11.2735 15.1068 11.2712 15.1044 11.2676 15.1038ZM11.3758 15.0582L11.3705 15.059L11.295 15.0966L11.2909 15.1006L11.2897 15.105L11.297 15.2788L11.2991 15.2836L11.3023 15.2864L11.3844 15.324C11.3896 15.3253 11.3935 15.3243 11.3963 15.3208L11.3979 15.3151L11.384 15.0671C11.3826 15.0622 11.3799 15.0593 11.3758 15.0582ZM11.0839 15.059L11.0815 15.058L11.0779 15.058C11.0758 15.0585 11.074 15.0597 11.0728 15.0614L11.0704 15.0671L11.0565 15.3151C11.0568 15.32 11.0591 15.3232 11.0634 15.3248L11.0696 15.324L11.1516 15.2864L11.1557 15.2832L11.1574 15.2788L11.1643 15.105L11.1631 15.1002L11.159 15.0962L11.0839 15.059ZM12.6589 12.5757V7.82316L13.0215 7.10568C13.1489 6.85359 12.9864 6.55303 12.7038 6.51828L11.0888 6.31871C11.0467 6.31372 11.0042 6.31372 10.9622 6.31871L9.34715 6.51828C9.28169 6.52638 9.21915 6.54989 9.16478 6.58685C9.11041 6.6238 9.06579 6.67312 9.03467 6.73066C9.00355 6.7882 8.98683 6.85229 8.98592 6.91754C8.98502 6.9828 8.99994 7.04732 9.02945 7.10568L9.39207 7.82316V12.5757H8.67745C8.39569 12.5757 8.16701 12.8019 8.16701 13.0807V13.7876H7.75866C7.65036 13.7876 7.5465 13.8302 7.46992 13.906C7.39334 13.9817 7.35031 14.0845 7.35031 14.1916C7.35031 14.2988 7.39334 14.4015 7.46992 14.4773C7.5465 14.553 7.65036 14.5956 7.75866 14.5956H14.2923C14.4006 14.5956 14.5044 14.553 14.581 14.4773C14.6576 14.4015 14.7006 14.2988 14.7006 14.1916C14.7006 14.0845 14.6576 13.9817 14.581 13.906C14.5044 13.8302 14.4006 13.7876 14.2923 13.7876H13.8839V13.0807C13.8839 12.8019 13.6552 12.5757 13.3735 12.5757H12.6589Z" fill="white"/>
<path d="M0.235617 56.0757V32.4726H10.5627C12.6986 32.4726 14.5391 32.821 16.0842 33.5179C17.6293 34.1922 18.8222 35.1701 19.6629 36.4514C20.5036 37.7327 20.9239 39.2613 20.9239 41.0372C20.9239 42.7905 20.5036 44.3079 19.6629 45.5892C18.8222 46.8705 17.6293 47.8596 16.0842 48.5564C14.5391 49.2308 12.6986 49.568 10.5627 49.568H3.30308L5.75705 47.1065V56.0757H0.235617ZM5.75705 47.7135L3.30308 45.1171H10.256C11.9601 45.1171 13.2326 44.7575 14.0733 44.0381C14.914 43.3188 15.3343 42.3185 15.3343 41.0372C15.3343 39.7334 14.914 38.7218 14.0733 38.0025C13.2326 37.2831 11.9601 36.9235 10.256 36.9235H3.30308L5.75705 34.3271V47.7135Z" fill="white"/>
<path d="M36.7869 56.4803C34.9009 56.4803 33.1513 56.1769 31.5381 55.5699C29.9476 54.963 28.5615 54.1088 27.38 53.0073C26.2212 51.9058 25.3123 50.6133 24.6533 49.1296C24.0171 47.646 23.699 46.0275 23.699 44.2741C23.699 42.5208 24.0171 40.9023 24.6533 39.4187C25.3123 37.935 26.2325 36.6425 27.4141 35.541C28.5956 34.4395 29.9816 33.5853 31.5722 32.9784C33.1627 32.3714 34.8896 32.068 36.7528 32.068C38.6387 32.068 40.3656 32.3714 41.9334 32.9784C43.5239 33.5853 44.8986 34.4395 46.0574 35.541C47.2389 36.6425 48.1592 37.935 48.8181 39.4187C49.4771 40.8798 49.8065 42.4983 49.8065 44.2741C49.8065 46.0275 49.4771 47.6573 48.8181 49.1634C48.1592 50.647 47.2389 51.9395 46.0574 53.041C44.8986 54.12 43.5239 54.963 41.9334 55.5699C40.3656 56.1769 38.6501 56.4803 36.7869 56.4803ZM36.7528 51.8271C37.8207 51.8271 38.7977 51.6473 39.6839 51.2876C40.5928 50.928 41.3881 50.411 42.0697 49.7366C42.7514 49.0622 43.274 48.2642 43.6375 47.3425C44.0238 46.4209 44.2169 45.3981 44.2169 44.2741C44.2169 43.1502 44.0238 42.1274 43.6375 41.2057C43.274 40.2841 42.7514 39.4861 42.0697 38.8117C41.4108 38.1373 40.6269 37.6203 39.718 37.2607C38.8091 36.901 37.8207 36.7212 36.7528 36.7212C35.6848 36.7212 34.6964 36.901 33.7876 37.2607C32.9014 37.6203 32.1175 38.1373 31.4358 38.8117C30.7542 39.4861 30.2202 40.2841 29.8339 41.2057C29.4704 42.1274 29.2886 43.1502 29.2886 44.2741C29.2886 45.3756 29.4704 46.3984 29.8339 47.3425C30.2202 48.2642 30.7428 49.0622 31.4018 49.7366C32.0834 50.411 32.8787 50.928 33.7876 51.2876C34.6964 51.6473 35.6848 51.8271 36.7528 51.8271Z" fill="white"/>
<path d="M53.9561 56.0757V32.4726H58.5232L68.6799 49.1296H66.26L76.2463 32.4726H80.7794L80.8475 56.0757H75.6669L75.6328 40.3291H76.5872L68.6118 53.5805H66.1237L57.9779 40.3291H59.1367V56.0757H53.9561Z" fill="white"/>
<path d="M86.5079 56.0757V32.4726H96.8351C98.9709 32.4726 100.811 32.821 102.356 33.5179C103.902 34.1922 105.094 35.1701 105.935 36.4514C106.776 37.7327 107.196 39.2613 107.196 41.0372C107.196 42.7905 106.776 44.3079 105.935 45.5892C105.094 46.8705 103.902 47.8596 102.356 48.5564C100.811 49.2308 98.9709 49.568 96.8351 49.568H89.5754L92.0294 47.1065V56.0757H86.5079ZM92.0294 47.7135L89.5754 45.1171H96.5283C98.2325 45.1171 99.5049 44.7575 100.346 44.0381C101.186 43.3188 101.607 42.3185 101.607 41.0372C101.607 39.7334 101.186 38.7218 100.346 38.0025C99.5049 37.2831 98.2325 36.9235 96.5283 36.9235H89.5754L92.0294 34.3271V47.7135Z" fill="white"/>
<path d="M116.217 41.9813H127.702V46.2298H116.217V41.9813ZM116.626 51.6923H129.611V56.0757H111.138V32.4726H129.168V36.856H116.626V51.6923Z" fill="white"/>
<path d="M134.004 56.0757V32.4726H139.526V56.0757H134.004Z" fill="white"/>
<path d="M0.235617 87.5954V63.9923H4.80272L14.9594 80.6493H12.5395L22.5258 63.9923H27.0589L27.127 87.5954H21.9464L21.9123 71.8487H22.8667L14.8913 85.1002H12.4032L4.2574 71.8487H5.41622V87.5954H0.235617Z" fill="white"/>
<path d="M43.3872 88C40.0017 88 37.3546 87.0671 35.4459 85.2013C33.5373 83.3356 32.5829 80.6718 32.5829 77.21V63.9923H38.1044V77.0077C38.1044 79.2556 38.5702 80.8741 39.5018 81.8632C40.4334 82.8523 41.7399 83.3468 43.4213 83.3468C45.1027 83.3468 46.4092 82.8523 47.3408 81.8632C48.2724 80.8741 48.7382 79.2556 48.7382 77.0077V63.9923H54.1915V77.21C54.1915 80.6718 53.2372 83.3356 51.3285 85.2013C49.4199 87.0671 46.7728 88 43.3872 88Z" fill="white"/>
<path d="M67.4868 88C65.5781 88 63.749 87.7527 61.9994 87.2582C60.2498 86.7412 58.8411 86.078 57.7731 85.2688L59.6477 81.1551C60.6702 81.8744 61.8744 82.4701 63.2605 82.9422C64.6692 83.3918 66.0894 83.6166 67.5208 83.6166C68.6115 83.6166 69.4863 83.5154 70.1452 83.3131C70.8269 83.0883 71.3268 82.7848 71.6449 82.4027C71.963 82.0205 72.122 81.5822 72.122 81.0877C72.122 80.4583 71.8721 79.9637 71.3722 79.604C70.8723 79.2219 70.2134 78.9184 69.3954 78.6936C68.5774 78.4464 67.6685 78.2216 66.6688 78.0193C65.6917 77.7945 64.7033 77.5247 63.7036 77.21C62.7265 76.8953 61.829 76.4907 61.011 75.9961C60.193 75.5016 59.5227 74.8497 59.0001 74.0405C58.5002 73.2312 58.2503 72.1972 58.2503 70.9383C58.2503 69.5896 58.6138 68.3645 59.3409 67.263C60.0908 66.139 61.2041 65.2511 62.6811 64.5992C64.1807 63.9248 66.0553 63.5876 68.3047 63.5876C69.8044 63.5876 71.2813 63.7675 72.7355 64.1271C74.1897 64.4643 75.4735 64.9813 76.5869 65.6782L74.8827 69.8256C73.7694 69.1962 72.656 68.7354 71.5426 68.4431C70.4293 68.1284 69.3386 67.9711 68.2707 67.9711C67.2027 67.9711 66.3279 68.0947 65.6463 68.342C64.9646 68.5893 64.4761 68.9152 64.1807 69.3198C63.8853 69.702 63.7376 70.1516 63.7376 70.6686C63.7376 71.2755 63.9876 71.7701 64.4875 72.1522C64.9873 72.5119 65.6463 72.8041 66.4643 73.0289C67.2823 73.2537 68.1798 73.4785 69.1568 73.7033C70.1566 73.9281 71.145 74.1866 72.122 74.4788C73.1218 74.771 74.0307 75.1644 74.8487 75.659C75.6666 76.1535 76.3256 76.8054 76.8255 77.6146C77.3481 78.4239 77.6094 79.4467 77.6094 80.683C77.6094 82.0093 77.2345 83.2232 76.4846 84.3247C75.7348 85.4261 74.6101 86.3141 73.1104 86.9884C71.6335 87.6628 69.759 88 67.4868 88Z" fill="white"/>
<path d="M86.4605 73.501H97.9465V77.7495H86.4605V73.501ZM86.8695 83.2119H99.8551V87.5954H81.3822V63.9923H99.412V68.3757H86.8695V83.2119Z" fill="white"/>
<path d="M114.848 88C111.463 88 108.815 87.0671 106.907 85.2013C104.998 83.3356 104.044 80.6718 104.044 77.21V63.9923H109.565V77.0077C109.565 79.2556 110.031 80.8741 110.963 81.8632C111.894 82.8523 113.201 83.3468 114.882 83.3468C116.564 83.3468 117.87 82.8523 118.802 81.8632C119.733 80.8741 120.199 79.2556 120.199 77.0077V63.9923H125.652V77.21C125.652 80.6718 124.698 83.3356 122.789 85.2013C120.881 87.0671 118.234 88 114.848 88Z" fill="white"/>
<path d="M131.109 87.5954V63.9923H135.676L145.832 80.6493H143.413L153.399 63.9923H157.932L158 87.5954H152.819L152.785 71.8487H153.74L145.764 85.1002H143.276L135.13 71.8487H136.289V87.5954H131.109Z" fill="white"/>
</svg>
